<?xml version="1.0" encoding="utf-8"?>
<svg viewBox="96.664 118.203 394.335 377.805" xmlns="http://www.w3.org/2000/svg">
  <path fill="#444444" opacity="1.000000" stroke="none" d="M 256.709 348.488 C 244.048 359.581 231.4 370.687 218.724 381.762 C 207.56 391.517 196.369 401.243 185.18 410.974 C 174.604 420.173 164.024 429.37 153.412 438.531 C 152.454 439.359 142.296 418.889 141.072 419.668 C 129.551 405.346 127.209 412.348 115.296 397.537 C 159.221 374.336 202.809 351.31 246.396 328.286 C 246.334 328.062 246.274 327.84 246.213 327.615 C 245.348 327.567 244.439 327.33 243.622 327.496 C 224.769 331.319 205.932 335.21 187.079 339.038 C 160.206 344.494 139.43 349.163 112.55 354.599 C 112.149 354.68 98.088 358.19 96.893 349.799 C 95.184 337.81 103.583 304.175 103.583 303.032 C 110.393 302.868 120.931 298.125 126.53 298.449 C 137.349 299.071 148.185 299.461 159.006 300.085 C 175.83 301.055 192.651 302.085 209.465 303.196 C 219.163 303.839 228.842 304.718 238.534 305.428 C 240.569 305.577 242.627 305.451 244.964 304.623 C 198.196 283.33 181.596 273.644 131.235 249.379 C 88.69 234.617 126.685 204.248 138.864 185.677 C 141.018 187.204 173.502 216.499 188.064 229.904 C 198.198 239.235 208.374 248.527 218.552 257.816 C 226.355 264.936 234.185 272.029 242.02 279.117 C 242.851 279.87 243.792 280.516 244.681 281.212 C 244.955 280.979 245.228 280.746 245.503 280.514 C 215.831 243.481 186.161 206.45 156.198 169.057 C 159.135 167.126 192.63 148.03 195.443 146.283 C 208.947 137.901 237.704 203.125 251.076 234.759 C 255.573 245.398 259.881 256.107 265.242 266.561 C 256.556 219.977 260.024 183.672 251.13 135.972 C 270.251 133.485 277.047 120.743 296.581 118.203 C 296.581 125.281 296.127 140.115 296.105 141.135 C 295.798 155.63 295.475 170.125 295.26 184.62 C 294.937 206.378 294.765 228.136 294.378 249.891 C 294.256 256.718 293.648 263.535 293.263 270.357 C 293.679 270.468 294.095 270.579 294.51 270.691 C 295.524 268.625 296.599 266.584 297.544 264.492 C 307.518 242.414 317.506 220.341 327.421 198.239 C 336.061 178.986 344.597 159.69 353.212 140.426 C 354.754 136.981 356.248 133.485 358.205 130.25 C 358.81 129.251 361.273 128.199 362.219 128.592 C 375.513 134.118 371.541 161.086 384.742 166.814 C 385.225 167.024 343.833 234.145 313.907 277.774 C 314.145 278.039 314.381 278.304 314.619 278.568 C 358.633 245.704 380.592 232.791 425.258 199.44 C 433.559 209.687 454.686 202.955 463.447 213.77 C 413.543 243.016 373.111 269.022 323.519 298.085 C 323.595 298.334 323.671 298.583 323.749 298.832 C 329.545 297.856 335.348 296.914 341.138 295.901 C 365.894 291.566 390.652 287.236 415.397 282.853 C 433.15 279.709 438.304 282.377 456.046 279.183 C 463.841 277.781 466.902 292.049 474.675 290.552 C 478.389 289.835 495.681 308.865 489.783 309.575 C 456.91 313.536 464.661 310.628 449.349 311.625 C 444.563 311.937 439.776 312.225 434.983 312.47 C 419.231 313.276 403.473 314.012 387.722 314.862 C 374.579 315.572 361.441 316.368 348.308 317.199 C 342.191 317.586 336.087 318.146 329.977 318.629 C 329.928 318.958 329.881 319.287 329.833 319.616 C 383.74 334.443 412.456 350.057 466.897 365.03 C 459.398 380.023 477.446 393.52 470.124 408.158 C 456.805 401.532 444.089 395.245 431.415 388.884 C 423.065 384.694 414.804 380.348 406.455 376.152 C 381.025 363.369 355.574 350.619 330.122 337.871 C 328.669 337.143 327.147 336.539 325.275 335.688 C 324.66 335.457 324.427 335.414 324.195 335.373 C 324.263 335.683 324.334 335.995 324.404 336.306 C 340.938 351.903 357.515 367.462 373.994 383.111 C 394.526 402.608 414.979 422.181 435.457 441.73 C 436.12 442.363 447.609 460.088 448.806 461.435 C 437.627 469.435 415.669 460.328 404.087 468.615 C 400.7 464.343 397.573 460.491 394.548 456.568 C 374.531 430.598 354.508 404.632 334.548 378.622 C 327.178 369.019 319.975 359.303 312.366 349.356 C 311.803 349.058 311.568 349.04 311.335 349.023 C 311.46 349.315 311.587 349.607 311.714 349.898 C 316.267 364.622 320.772 379.357 325.379 394.065 C 332.703 417.438 340.096 440.79 347.454 464.152 C 349.714 471.322 347.69 468.715 344.962 468.953 C 334.193 469.89 330.305 491.21 319.548 492.255 C 306.888 493.485 294.223 494.676 281.576 496.002 C 278.529 496.323 285.007 482.975 285.199 479.615 C 286.071 464.278 278.677 461.798 279.461 446.457 C 279.792 440.004 280.109 433.55 280.35 427.093 C 280.687 418.045 280.816 408.99 281.265 399.949 C 281.965 385.894 282.864 371.848 283.66 357.798 C 283.733 356.517 283.669 355.23 282.765 353.735 C 265.798 398.15 248.832 442.565 231.69 487.438 C 215.847 480.441 204.742 459.335 188.887 452.333 C 213.262 413.072 233.042 388.507 257.364 349.302 C 257.612 348.729 257.657 348.51 257.703 348.29 C 257.371 348.356 257.04 348.422 256.709 348.488 M 246.242 282.637 C 246.368 282.549 246.493 282.461 246.62 282.372 C 246.446 282.386 246.272 282.403 246.242 282.637 Z" style=""/>
</svg>