<?xml version="1.0" encoding="utf-8"?>
<svg viewBox="-110.62 142.935 862.347 148.143" xmlns="http://www.w3.org/2000/svg">
  <g transform="matrix(1, 0, 0, 1, -436.868958, 48.561527)">
    <path fill="#000000" opacity="1.000000" stroke="none" d="M 366.039 199.513 C 353.925 192.712 342.765 185.186 332.458 176.397 C 329.88 174.2 329.68 172.455 331.944 169.801 C 350.54 148.007 373.066 131.555 399.195 119.95 C 400.223 119.494 401.379 119.325 403.558 118.724 C 391.912 146.202 394.748 170.766 416.499 191.191 C 428.862 202.8 444.226 207.867 461.115 206.12 C 481.443 204.017 497.253 193.993 507.395 176.05 C 517.429 158.298 516.926 139.861 509.236 121.413 C 511.341 120.392 512.585 121.486 513.849 122.083 C 537.366 133.179 557.715 148.497 574.863 168.046 C 579.406 173.225 579.507 173.431 574.331 177.922 C 545.396 203.028 512.185 218.721 473.903 222.989 C 435.464 227.275 399.938 217.948 366.039 199.513 Z"/>
    <path fill="#000000" opacity="1.000000" stroke="none" d="M 1112.129 216.108 C 1061.01 231.867 1013.384 223.354 968.028 197.617 C 957.436 191.608 947.466 184.661 938.154 176.767 C 935.485 174.504 934.79 172.756 937.306 169.818 C 955.934 148.059 978.291 131.378 1004.568 119.964 C 1005.624 119.506 1006.684 118.962 1008.316 119.438 C 995.215 153.13 1001.769 181.293 1034.288 199.494 C 1055.863 211.569 1078.248 209.007 1097.478 193.463 C 1121.127 174.346 1125.695 149.587 1114.67 121.66 C 1116.573 120.212 1118.004 121.539 1119.355 122.182 C 1143.146 133.51 1163.701 149.088 1181.001 168.999 C 1183.732 172.142 1183.919 174.102 1180.545 177.102 C 1160.577 194.864 1137.925 207.814 1112.129 216.108 Z"/>
    <path fill="#000000" opacity="1.000000" stroke="none" d="M 1052.342 180.476 C 1035.379 175.333 1025.753 161.909 1026.496 144.847 C 1027.14 130.043 1038.486 117.156 1053.8 113.831 C 1073.098 109.642 1091.326 122.561 1094.804 142.894 C 1097.836 160.626 1083.996 178.573 1065.592 181.106 C 1061.2 181.71 1056.995 181.391 1052.342 180.476 Z"/>
    <path fill="#000000" opacity="1.000000" stroke="none" d="M 433.373 158.81 C 426.25 145.015 433.498 128.043 448.366 123.412 C 462.465 119.02 477.014 127.478 480.551 142.22 C 483.169 153.135 477.335 165.129 466.985 170.108 C 456.264 175.267 442.929 172.204 435.951 162.944 C 435.053 161.752 434.336 160.424 433.373 158.81 Z"/>
  </g>
</svg>